<?xml version="1.0" encoding="UTF-8"?>
<!DOCTYPE svg PUBLIC "-//W3C//DTD SVG 1.1//EN" "http://www.w3.org/Graphics/SVG/1.1/DTD/svg11.dtd">
<svg xmlns="http://www.w3.org/2000/svg" version="1.1" width="1219px" height="426px" style="shape-rendering:geometricPrecision; text-rendering:geometricPrecision; image-rendering:optimizeQuality; fill-rule:evenodd; clip-rule:evenodd" xmlns:xlink="http://www.w3.org/1999/xlink">
<g><path style="opacity:0.973" fill="#88a139" d="M 112.5,-0.5 C 115.167,-0.5 117.833,-0.5 120.5,-0.5C 127.025,1.86616 130.858,6.53283 132,13.5C 132.667,109.5 132.667,205.5 132,301.5C 128.294,314.523 120.127,318.357 107.5,313C 104.894,311.062 103.061,308.562 102,305.5C 101.333,206.833 101.333,108.167 102,9.5C 104.106,4.55732 107.606,1.22399 112.5,-0.5 Z"/></g>
<g><path style="opacity:0.973" fill="#f06421" d="M 44.5,39.5 C 55.3816,38.2304 61.8816,42.8971 64,53.5C 64.6667,149.5 64.6667,245.5 64,341.5C 60.2937,354.523 52.1271,358.357 39.5,353C 36.8941,351.062 35.0608,348.562 34,345.5C 33.3333,246.833 33.3333,148.167 34,49.5C 36.1059,44.5573 39.6059,41.224 44.5,39.5 Z"/></g>
<g><path style="opacity:0.973" fill="#7c2061" d="M 78.5,79.5 C 89.3816,78.2304 95.8816,82.8971 98,93.5C 98.6667,189.5 98.6667,285.5 98,381.5C 94.2937,394.523 86.1271,398.357 73.5,393C 70.8941,391.062 69.0608,388.562 68,385.5C 67.3333,286.833 67.3333,188.167 68,89.5C 70.1059,84.5573 73.6059,81.224 78.5,79.5 Z"/></g>
<g><path style="opacity:0.973" fill="#0096aa" d="M 18.5,425.5 C 15.8333,425.5 13.1667,425.5 10.5,425.5C 5.58321,423.585 1.91654,420.252 -0.5,415.5C -0.5,316.833 -0.5,218.167 -0.5,119.5C 5.07932,109.697 13.0793,107.197 23.5,112C 27.5341,114.761 29.7007,118.594 30,123.5C 30.6667,219.5 30.6667,315.5 30,411.5C 28.8581,418.467 25.0248,423.134 18.5,425.5 Z"/></g>
<g><path style="opacity:0.894" fill="#173862" d="M 1073.5,183.5 C 1085.49,182.76 1094.82,187.26 1101.5,197C 1099.43,199.123 1096.93,200.623 1094,201.5C 1085.33,192.733 1075.5,191.233 1064.5,197C 1055.26,205.618 1053.09,215.785 1058,227.5C 1068.89,242.058 1080.89,243.058 1094,230.5C 1096.93,231.377 1099.43,232.877 1101.5,235C 1092.81,247.103 1081.14,251.103 1066.5,247C 1052.87,241.512 1045.53,231.346 1044.5,216.5C 1045.42,197.592 1055.09,186.592 1073.5,183.5 Z"/></g>
<g><path style="opacity:0.922" fill="#173862" d="M 308.5,184.5 C 324.5,184.5 340.5,184.5 356.5,184.5C 356.5,187.5 356.5,190.5 356.5,193.5C 350.167,193.5 343.833,193.5 337.5,193.5C 337.5,211.5 337.5,229.5 337.5,247.5C 334.167,247.5 330.833,247.5 327.5,247.5C 327.5,229.5 327.5,211.5 327.5,193.5C 321.167,193.5 314.833,193.5 308.5,193.5C 308.5,190.5 308.5,187.5 308.5,184.5 Z"/></g>
<g><path style="opacity:0.911" fill="#173862" d="M 429.5,184.5 C 440.896,184.091 452.23,184.591 463.5,186C 472.124,189.063 476.458,195.229 476.5,204.5C 475.731,214.102 470.731,220.269 461.5,223C 466.697,230.699 471.697,238.533 476.5,246.5C 472.5,247.833 468.5,247.833 464.5,246.5C 460.031,238.867 455.365,231.367 450.5,224C 446.848,223.501 443.182,223.335 439.5,223.5C 439.5,231.5 439.5,239.5 439.5,247.5C 436.167,247.5 432.833,247.5 429.5,247.5C 429.5,226.5 429.5,205.5 429.5,184.5 Z M 439.5,193.5 C 446.241,193.171 452.908,193.671 459.5,195C 466.017,199.245 467.183,204.745 463,211.5C 461.581,212.46 460.081,213.293 458.5,214C 452.175,214.5 445.842,214.666 439.5,214.5C 439.5,207.5 439.5,200.5 439.5,193.5 Z"/></g>
<g><path style="opacity:0.904" fill="#173862" d="M 568.5,184.5 C 572.884,184.174 577.217,184.508 581.5,185.5C 590.098,205.967 598.098,226.633 605.5,247.5C 601.774,247.823 598.107,247.489 594.5,246.5C 592.962,242.593 591.296,238.76 589.5,235C 579.816,234.168 570.149,234.335 560.5,235.5C 558.927,239.392 557.26,243.225 555.5,247C 551.789,247.825 548.122,247.659 544.5,246.5C 553.075,226.024 561.075,205.357 568.5,184.5 Z M 574.5,195.5 C 578.865,204.905 582.865,214.571 586.5,224.5C 578.855,225.665 571.188,225.831 563.5,225C 567.664,215.341 571.33,205.508 574.5,195.5 Z"/></g>
<g><path style="opacity:0.913" fill="#173862" d="M 676.5,184.5 C 680.226,184.177 683.893,184.511 687.5,185.5C 698,199.833 708.5,214.167 719,228.5C 719.5,213.837 719.667,199.17 719.5,184.5C 722.833,184.5 726.167,184.5 729.5,184.5C 729.5,205.5 729.5,226.5 729.5,247.5C 725.894,247.789 722.394,247.456 719,246.5C 708.579,231.324 697.912,216.324 687,201.5C 686.5,216.83 686.333,232.163 686.5,247.5C 683.167,247.5 679.833,247.5 676.5,247.5C 676.5,226.5 676.5,205.5 676.5,184.5 Z"/></g>
<g><path style="opacity:0.909" fill="#173862" d="M 804.5,184.5 C 819.5,184.5 834.5,184.5 849.5,184.5C 849.854,188.637 849.354,192.637 848,196.5C 837.711,210.244 827.545,224.078 817.5,238C 828.495,238.5 839.495,238.667 850.5,238.5C 850.5,241.5 850.5,244.5 850.5,247.5C 835.167,247.5 819.833,247.5 804.5,247.5C 804.335,244.15 804.502,240.817 805,237.5C 815.5,223 826,208.5 836.5,194C 825.839,193.5 815.172,193.333 804.5,193.5C 804.5,190.5 804.5,187.5 804.5,184.5 Z"/></g>
<g><path style="opacity:0.904" fill="#173862" d="M 943.5,184.5 C 947.767,184.203 951.934,184.536 956,185.5C 964.171,206.017 972.338,226.517 980.5,247C 976.514,247.499 972.514,247.666 968.5,247.5C 967.167,243.167 965.833,238.833 964.5,234.5C 954.478,234.168 944.478,234.501 934.5,235.5C 932.586,239.323 931.253,243.323 930.5,247.5C 926.445,247.824 922.445,247.491 918.5,246.5C 926.841,225.804 935.174,205.138 943.5,184.5 Z M 948.5,196.5 C 953.627,205.507 957.627,215.173 960.5,225.5C 953.167,225.5 945.833,225.5 938.5,225.5C 941.547,215.738 944.881,206.071 948.5,196.5 Z"/></g>
<g><path style="opacity:0.924" fill="#173862" d="M 1218.5,184.5 C 1218.5,187.5 1218.5,190.5 1218.5,193.5C 1212.17,193.5 1205.83,193.5 1199.5,193.5C 1199.5,211.5 1199.5,229.5 1199.5,247.5C 1196.17,247.5 1192.83,247.5 1189.5,247.5C 1189.5,229.5 1189.5,211.5 1189.5,193.5C 1183.17,193.5 1176.83,193.5 1170.5,193.5C 1170.5,190.5 1170.5,187.5 1170.5,184.5C 1186.5,184.5 1202.5,184.5 1218.5,184.5 Z"/></g>
</svg>
