<svg viewBox="0 0 24 24" xmlns="http://www.w3.org/2000/svg"><path d="M23 15.092V14.5a.5.5 0 1 0 0-1h-1a.5.5 0 1 0 0 1v.5h-1.2c.115-.891.2-1.894.2-3 0-3.56-.833-6.217-.966-6.615a.497.497 0 0 0-.243-.33C19.641 4.97 16.066 3 10.5 3S1.358 4.97 1.209 5.054a.502.502 0 0 0-.228.273C.941 5.443 0 8.217 0 12s.941 6.557.981 6.673c.04.116.122.213.228.273.06.034.695.38 1.791.779v.775a.5.5 0 0 0 .5.5H4a.5.5 0 0 0 .447-.276l.237-.474c1.525.406 3.494.75 5.816.75s4.291-.344 5.816-.75l.237.474A.5.5 0 0 0 17 21h.5a.5.5 0 0 0 .5-.5v-.775c1.096-.399 1.73-.745 1.791-.78a.497.497 0 0 0 .243-.33c.075-.225.372-1.19.618-2.615H22.5a.5.5 0 0 1 .5.5v1a.5.5 0 1 0 1 0v-1a1.5 1.5 0 0 0-1-1.408z" fill="#303C42"/><path d="M16 12c0 3.017-.335 6.382-.452 7.406-.306.074-.63.143-.968.208.05-.468.1-1.131.174-2.078C14.866 16.082 15 13.94 15 12c0-2.884-.297-6.226-.435-7.617.343.065.67.135.979.21C15.66 5.643 16 8.948 16 12zm-9.754 5.537c.073.947.125 1.61.174 2.079a21.104 21.104 0 0 1-.968-.208C5.334 18.38 5 15.015 5 12c0-3.054.34-6.362.457-7.41.31-.073.635-.144.978-.208C6.298 5.772 6 9.115 6 12c0 1.94.134 4.082.246 5.537z" fill="#DFE1DF"/><path d="M1 12c0-3.069.664-5.49.868-6.162.351-.175 1.241-.583 2.553-.971C4.278 6.222 4 9.214 4 12c0 1.94.134 3.97.246 5.33.065.793.113 1.37.158 1.798a19.756 19.756 0 0 1-.702-.22c-.007-.004-.015-.006-.023-.009a14.883 14.883 0 0 1-1.81-.737C1.663 17.49 1 15.069 1 12zm6.451 7.786C7.333 18.655 7 15.036 7 12c0-3.05.339-6.632.457-7.786a21.816 21.816 0 0 1 6.087 0C13.66 5.37 14 8.951 14 12c0 3.037-.333 6.655-.452 7.785a21.813 21.813 0 0 1-6.097 0zm9.856-.884h-.002c-.219.075-.458.15-.709.224.045-.427.093-1.007.158-1.798.112-1.36.246-3.389.246-5.328 0-2.784-.278-5.775-.42-7.13 1.306.385 2.195.792 2.549.967.2.652.871 3.07.871 6.163s-.67 5.51-.871 6.163c-.284.14-.91.43-1.822.74z" fill="#BA7118"/><path d="M15.544 4.593c-.31-.075-.636-.145-.979-.21.03.295.067.692.106 1.14.33.033.667.065.98.1a98.61 98.61 0 0 0-.107-1.03z" fill="#FFF" opacity=".2"/><path d="M14.58 19.614c.338-.065.662-.134.968-.208a62.2 62.2 0 0 0 .107-1.03c-.31.035-.646.067-.975.1-.037.466-.07.846-.1 1.138z" opacity=".1"/><path d="M6.435 4.382a21.03 21.03 0 0 0-.978.209 62.37 62.37 0 0 0-.107 1.031c.312-.035.649-.067.98-.1.039-.448.076-.846.105-1.14z" fill="#FFF" opacity=".2"/><path d="M5.452 19.408c.306.074.63.143.968.208a48.12 48.12 0 0 1-.1-1.139c-.33-.033-.664-.065-.975-.1.042.437.08.8.107 1.031z" opacity=".1"/><path d="M1.868 5.838C1.664 6.51 1 8.931 1 12c0-2.637.664-4.719.868-5.295.341-.146 1.2-.482 2.452-.807.037-.397.072-.755.101-1.031-1.312.388-2.202.796-2.553.971z" fill="#FFF" opacity=".2"/><path d="M3.68 17.93a16.335 16.335 0 0 1-1.812-.635C1.664 16.72 1 14.637 1 12c0 3.069.664 5.49.868 6.162.28.14.903.429 1.811.737l.023.008c.216.074.454.148.702.221A54.894 54.894 0 0 1 4.31 18.1a21.71 21.71 0 0 1-.608-.164l-.023-.007z" opacity=".1"/><path d="M13.646 5.29c-.04-.451-.077-.824-.103-1.076a21.816 21.816 0 0 0-6.086 0 97.42 97.42 0 0 0-.103 1.076 30.825 30.825 0 0 1 3.146-.165c1.132 0 2.178.067 3.146.166z" fill="#FFF" opacity=".2"/><path d="M7.348 18.71c.041.454.078.828.103 1.076a21.813 21.813 0 0 0 6.097 0c.026-.25.063-.622.104-1.077-.97.1-2.018.166-3.152.166a30.83 30.83 0 0 1-3.152-.166zm11.781-1.414c-.284.121-.91.37-1.822.636h-.002c-.19.055-.4.111-.615.167-.035.411-.065.755-.094 1.027.25-.074.49-.15.71-.223a15.012 15.012 0 0 0 1.823-.74c.2-.652.871-3.07.871-6.163 0 2.659-.67 4.736-.871 5.296z" opacity=".1"/><path d="M20 12c0-3.094-.67-5.51-.871-6.163-.354-.175-1.243-.582-2.55-.968.03.276.065.634.101 1.03 1.247.324 2.105.658 2.449.805.2.56.871 2.637.871 5.296z" fill="#FFF" opacity=".2"/><linearGradient gradientUnits="userSpaceOnUse" id="a" x1="-.072" x2="23.543" y1="7.58" y2="18.592"><stop offset="0" stop-color="#fff" stop-opacity=".2"/><stop offset="1" stop-color="#fff" stop-opacity="0"/></linearGradient><path d="M23 15.092V14.5a.5.5 0 1 0 0-1h-1a.5.5 0 1 0 0 1v.5h-1.2c.115-.891.2-1.894.2-3 0-3.56-.833-6.217-.966-6.615a.497.497 0 0 0-.243-.33C19.641 4.97 16.066 3 10.5 3S1.358 4.97 1.209 5.054a.502.502 0 0 0-.228.273C.941 5.443 0 8.217 0 12s.941 6.557.981 6.673c.04.116.122.213.228.273.06.034.695.38 1.791.779v.775a.5.5 0 0 0 .5.5H4a.5.5 0 0 0 .447-.276l.237-.474c1.525.406 3.494.75 5.816.75s4.291-.344 5.816-.75l.237.474A.5.5 0 0 0 17 21h.5a.5.5 0 0 0 .5-.5v-.775c1.096-.399 1.73-.745 1.791-.78a.497.497 0 0 0 .243-.33c.075-.225.372-1.19.618-2.615H22.5a.5.5 0 0 1 .5.5v1a.5.5 0 1 0 1 0v-1a1.5 1.5 0 0 0-1-1.408z" fill="url(#a)"/></svg>