<svg id="Layer_6" viewBox="0 0 512 512" xmlns="http://www.w3.org/2000/svg"><style>.st0{fill:#5b2418}.st1{fill:#702812}.st2{fill:#ad792d}.st3{fill:#c18c36}.st4{fill:#c69c6d}.st5{fill:#b5895d}.st6{fill:#1697c4}.st7{fill:#0e89aa}.st8{fill:none;stroke:#fff;stroke-width:18;stroke-linecap:round;stroke-miterlimit:10}.st9{fill:#2d1304}.st10{fill:#aa8d3c}.st11{fill:#e0ba41}</style><path class="st0" d="M162.1 168.1l-2.7-46.2c-.9-15.6-2.5-31.1-4.7-46.6l-8.4-58.5H94.9l-8.2 56.8c-2.2 15.3-3.8 30.8-4.8 46.2l-3 48.8c-1 9.2-4.4 17.9-10.1 25.2l-18.1 23.7C39.2 232.4 33 250.8 33 269.6v216.9c0 14.1 11.4 25.6 25.6 25.6h125.6c14.1 0 25.6-11.4 25.6-25.6v-216c0-19.4-6.6-38.2-18.7-53.4L172.8 194c-6-7.4-9.7-16.4-10.7-25.9z"/><path class="st1" d="M209.8 486.4v-216c0-19.4-6.6-38.2-18.7-53.4l-18.3-23c-5.9-7.5-9.6-16.5-10.6-25.9l-2.7-46.2c-.9-15.6-2.5-31.1-4.7-46.6l-8.4-58.5h-33.6l-8.2 56.8c-2.2 15.3-3.8 30.8-4.8 46.2l-3 48.8c-1 9.2-4.4 17.9-10.1 25.2l-18.1 23.7c-11.5 14.9-17.7 33.3-17.7 52.1v216.9c0 14.1 11.4 25.6 25.6 25.6h107.9c14-.1 25.4-11.5 25.4-25.7z"/><path class="st0" d="M146.2 26.3H94.7c-1.5 0-2.8-1.2-2.8-2.8v-.4c0-1.5 1.2-2.8 2.8-2.8h51.4c1.5 0 2.8 1.2 2.8 2.8v.4c0 1.5-1.2 2.8-2.7 2.8z"/><path class="st2" d="M147.3 17.4c-1.9.3-1.8 1.1-3.8 1.1s-1.9-1.1-3.9-1.1c-1.9 0-1.9 1.1-3.8 1.1s-1.9-1.1-3.8-1.1-1.9 1.1-3.8 1.1-1.9-1.1-3.8-1.1-1.9 1.1-3.8 1.1-1.9-1.1-3.8-1.1-1.9 1.1-3.8 1.1-1.9-1.1-3.8-1.1-1.9 1.1-3.8 1.1-1.9-1.1-3.8-1.1-1.9 1.1-3.8 1.1-1.9-.7-3.7-1.1V9.1c0-5 4.1-9.1 9.1-9.1h35.4c5 0 9.1 4.1 9.1 9.1v8.3z"/><path class="st3" d="M101.3 9.1v8.3c1.8 0 1.9 1.1 3.7 1.1 1.9 0 1.9-1.1 3.8-1.1s1.9 1.1 3.8 1.1 1.9-1.1 3.8-1.1 1.9 1.1 3.8 1.1 1.9-1.1 3.8-1.1 1.9 1.1 3.8 1.1 1.9-1.1 3.8-1.1 1.9 1.1 3.8 1.1 1.9-1.1 3.8-1.1 1.9 1.1 3.8 1.1 1.9-1 3.8-1.1V9.1c0-5-4.1-9.1-9.1-9.1H110c-4.6 0-8.7 4.1-8.7 9.1z"/><path class="st4" d="M33.1 303.7h176.7v154H33.1z"/><path class="st5" d="M33.1 303.7h17.7v154H33.1z"/><path class="st6" d="M33.1 317.2h176.7v127H33.1z"/><path class="st7" d="M33.1 317.2h17.3v127H33.1z"/><path class="st5" d="M160.7 143.3l-1.3-21.4c-.8-14.1-2.2-28.1-4.1-42.1H85.8c-1.8 13.3-3.1 26.7-3.9 40.1l-1.4 23.5h80.2z"/><path class="st4" d="M155.3 79.8h-52.9c-1.8 13.3-3.1 26.7-3.9 40.1L97 143.3h63.6l-1.3-21.4c-.7-14.1-2.1-28.2-4-42.1z"/><path class="st7" d="M159.9 130.9l-.5-9c-.6-9.9-1.4-19.8-2.6-29.7H84.3c-1 9.2-1.8 18.4-2.4 27.7l-.7 11.1h78.7z"/><path class="st6" d="M156.8 92.2h-56.7c-1 9.2-1.8 18.4-2.4 27.7l-.7 11h62.9l-.5-9c-.6-10-1.4-19.9-2.6-29.7z"/><circle class="st4" cx="120.4" cy="358.7" r="64.9"/><circle class="st6" cx="120.4" cy="363.2" r="59.6"/><circle class="st4" cx="120.6" cy="103.5" r="27.4"/><circle class="st6" cx="120.6" cy="105.4" r="25.2"/><path class="st8" d="M159.9 210.9c-3.4-4.8-5.6-7.8-5.6-7.8m33.2 86s.4-29.8-5.5-49.7"/><path d="M431.2 168.1l-2.7-46.2c-.9-15.6-2.5-31.1-4.7-46.6l-8.4-58.5H364l-8.2 56.8c-2.2 15.3-3.8 30.8-4.8 46.2l-3 48.8c-1 9.2-4.4 17.9-10.1 25.2l-18.1 23.7c-11.5 14.9-17.7 33.3-17.7 52.1v216.9c0 14.1 11.4 25.6 25.6 25.6h125.6c14.1 0 25.6-11.4 25.6-25.6v-216c0-19.4-6.6-38.2-18.7-53.4L441.9 194c-6-7.4-9.7-16.4-10.7-25.9z"/><path class="st9" d="M478.9 486.4v-216c0-19.4-6.6-38.2-18.7-53.4l-18.3-23c-5.9-7.5-9.6-16.5-10.6-25.9l-2.7-46.2c-.9-15.6-2.5-31.1-4.7-46.6l-8.4-58.5h-33.6l-8.2 56.8c-2.2 15.3-3.8 30.8-4.8 46.2l-3 48.8c-1 9.2-4.4 17.9-10.1 25.2l-18.1 23.7c-11.5 14.9-17.7 33.3-17.7 52.1v216.9c0 14.1 11.4 25.6 25.6 25.6h107.9c14-.1 25.4-11.5 25.4-25.7z"/><path class="st0" d="M415.3 26.3h-51.4c-1.5 0-2.8-1.2-2.8-2.8v-.4c0-1.5 1.2-2.8 2.8-2.8h51.4c1.5 0 2.8 1.2 2.8 2.8v.4c-.1 1.5-1.3 2.8-2.8 2.8z"/><path class="st10" d="M416.4 17.4c-1.9.3-1.8 1.1-3.8 1.1s-1.9-1.1-3.9-1.1c-1.9 0-1.9 1.1-3.8 1.1s-1.9-1.1-3.8-1.1-1.9 1.1-3.8 1.1-1.9-1.1-3.8-1.1-1.9 1.1-3.8 1.1-1.9-1.1-3.8-1.1-1.9 1.1-3.8 1.1-1.9-1.1-3.8-1.1-1.9 1.1-3.8 1.1-1.9-1.1-3.8-1.1-1.9 1.1-3.8 1.1-1.9-.7-3.7-1.1V9.1c0-5 4.1-9.1 9.1-9.1h35.4c5 0 9.1 4.1 9.1 9.1v8.3z"/><path class="st11" d="M370.4 9.1v8.3c1.8 0 1.9 1.1 3.7 1.1 1.9 0 1.9-1.1 3.8-1.1s1.9 1.1 3.8 1.1 1.9-1.1 3.8-1.1 1.9 1.1 3.8 1.1 1.9-1.1 3.8-1.1 1.9 1.1 3.8 1.1 1.9-1.1 3.8-1.1 1.9 1.1 3.8 1.1 1.9-1.1 3.8-1.1 1.9 1.1 3.8 1.1 1.9-1 3.8-1.1V9.1c0-5-4.1-9.1-9.1-9.1h-27.7c-4.6 0-8.7 4.1-8.7 9.1z"/><ellipse class="st11" cx="390.6" cy="358.7" rx="88.4" ry="101.9"/><path class="st10" d="M319.9 297.5c-11.1 17-17.7 38.2-17.7 61.2s6.6 44.2 17.7 61.2V297.5z"/><ellipse cx="390.6" cy="358.7" rx="83.3" ry="83.7"/><path class="st8" d="M429 210.9c-3.4-4.8-5.6-7.8-5.6-7.8m33.2 86s.4-29.8-5.5-49.7"/></svg>