<svg height="512" viewBox="0 0 512 512" width="512" xmlns="http://www.w3.org/2000/svg"><circle cx="256" cy="256" r="243" fill="#f5ba3d"/><g fill="#125e6e"><path d="M413.223 96.529v397.57c0 4.254-3.405 7.695-7.615 7.695H97.104c-4.21 0-7.615-3.441-7.615-7.695V96.529c0-4.254 3.405-7.706 7.615-7.706h308.503c4.211 0 7.616 3.452 7.616 7.706z"/><path d="M413.223 96.529v397.57c0 4.254-3.405 7.695-7.615 7.695H97.104c-4.21 0-7.615-3.441-7.615-7.695V96.529c0-4.254 3.405-7.706 7.615-7.706h308.503c4.211 0 7.616 3.452 7.616 7.706z" style="adobe-blending-mode:multiply" opacity=".3"/></g><path d="M413.223 96.713v391.448c0 4.195-3.341 7.58-7.473 7.58H103.015c-4.131 0-7.473-3.384-7.473-7.58V96.713c0-4.195 3.341-7.59 7.473-7.59H405.75c4.131-.001 7.473 3.394 7.473 7.59z" fill="#125e6e"/><path style="adobe-blending-mode:multiply" opacity=".3" d="M115.128 109.922h268.29v344.414h-268.29z"/><path fill="#fff" d="M121.181 109.922h262.237v338.361H121.181z"/><g fill="#b2b6ba"><path d="M291.704 73.483v16.216a7.475 7.475 0 0 1-7.473 7.473H220.37a7.474 7.474 0 0 1-7.473-7.473V73.483c0-.673.085-1.334.267-1.954a7.462 7.462 0 0 1 7.206-5.519h63.861a7.462 7.462 0 0 1 7.206 5.519c.182.619.267 1.281.267 1.954z"/><path d="M291.704 73.483v16.216a7.475 7.475 0 0 1-7.473 7.473H220.37a7.474 7.474 0 0 1-7.473-7.473V73.483c0-.673.085-1.334.267-1.954a7.462 7.462 0 0 1 7.206-5.519h63.861a7.462 7.462 0 0 1 7.206 5.519c.182.619.267 1.281.267 1.954z" style="adobe-blending-mode:multiply" opacity=".4"/></g><path d="M291.704 73.483v16.216a7.475 7.475 0 0 1-7.473 7.473H220.37a7.474 7.474 0 0 1-7.473-7.473V73.483c0-.673.085-1.334.267-1.954h78.273c.182.619.267 1.281.267 1.954z" style="adobe-blending-mode:multiply" opacity=".5" fill="#b2b6ba"/><path d="M312.628 89.122v28.845c0 1.964-1.676 3.555-3.779 3.555-2.028 0-3.672-1.516-3.758-3.416-.032 0-.064.011-.107.011h-5.242c-.075 1.89-1.719 3.405-3.758 3.405s-3.683-1.516-3.758-3.405h-5.348c-.075 1.89-1.729 3.405-3.768 3.405-2.028 0-3.683-1.516-3.758-3.405h-5.348c-.075 1.89-1.719 3.405-3.768 3.405-2.028 0-3.672-1.516-3.747-3.405h-5.348c-.085 1.89-1.729 3.405-3.768 3.405-2.028 0-3.683-1.516-3.758-3.405h-5.348c-.075 1.89-1.729 3.405-3.768 3.405-2.028 0-3.672-1.516-3.758-3.405h-5.348c-.075 1.89-1.719 3.405-3.758 3.405s-3.683-1.516-3.758-3.405h-5.348c-.096 1.89-1.729 3.405-3.768 3.405-2.028 0-3.683-1.516-3.758-3.405h-5.348c-.085 1.89-1.729 3.405-3.768 3.405-2.028 0-3.672-1.516-3.747-3.405h-5.252c-.032 0-.064-.011-.107-.011-.075 1.9-1.719 3.416-3.758 3.416-2.092 0-3.779-1.591-3.779-3.555V89.122h123.384z" style="adobe-blending-mode:multiply" opacity=".2"/><path d="M312.628 82.77v34.29c0 1.964-1.644 3.555-3.694 3.555-1.986 0-3.598-1.516-3.672-3.416-.032 0-.064.011-.107.011h-5.124c-.075 1.89-1.687 3.405-3.683 3.405-1.986 0-3.598-1.516-3.672-3.405h-5.231c-.075 1.89-1.687 3.405-3.683 3.405-1.986 0-3.598-1.516-3.672-3.405h-5.231c-.075 1.89-1.687 3.405-3.683 3.405-1.986 0-3.598-1.516-3.672-3.405h-5.231c-.075 1.89-1.687 3.405-3.683 3.405-1.986 0-3.598-1.516-3.672-3.405h-5.231c-.075 1.89-1.687 3.405-3.683 3.405-1.986 0-3.598-1.516-3.672-3.405h-5.231c-.075 1.89-1.687 3.405-3.683 3.405-1.986 0-3.598-1.516-3.672-3.405h-5.231c-.085 1.89-1.687 3.405-3.683 3.405-1.986 0-3.598-1.516-3.672-3.405h-5.231c-.085 1.89-1.687 3.405-3.683 3.405-1.986 0-3.598-1.516-3.672-3.405h-5.135c-.032 0-.064-.011-.096-.011-.075 1.9-1.687 3.416-3.683 3.416-2.039 0-3.694-1.591-3.694-3.555V82.77c0-2.861 3.352-5.188 7.473-5.188h105.719c4.128 0 7.47 2.327 7.47 5.188z" fill="#b2b6ba"/><path d="M312.628 82.77v6.053c0-2.861-3.341-5.188-7.473-5.188H199.436c-4.121 0-7.473 2.327-7.473 5.188V82.77c0-2.861 3.352-5.188 7.473-5.188h105.719c4.131 0 7.473 2.327 7.473 5.188z" style="adobe-blending-mode:multiply" opacity=".5" fill="#b2b6ba"/><path style="adobe-blending-mode:screen" opacity=".5" fill="#b2b6ba" d="M191.963 101.548h120.665v6.832H191.963z"/><path opacity=".7" fill="#8dc63f" d="M143.896 155.454h76.337v113.211h-76.337z"/><path opacity=".7" fill="#9b85be" d="M241.581 155.454h119.68v7.116h-119.68zm0 15.132h119.68v7.116h-119.68zm0 15.132h119.68v7.116h-119.68zm0 15.133h119.68v7.116h-119.68zm0 15.132h119.68v7.116h-119.68zm0 15.133h119.68v7.116h-119.68zm0 15.132h119.68v7.116h-119.68zm0 15.133h119.68v7.116h-119.68zm-97.685 34.477h217.365v7.116H143.896zm0 15.132h217.365v7.116H143.896zm0 15.133h217.365v7.116H143.896zm0 15.132h217.365v7.116H143.896z"/><path d="M413.223 286.555v32.72c-17.252 15.65-58.726 53.367-68.462 63.103-12.373 12.373-29.987 15.223-29.987 15.223l-16.985 2.487 115.434-113.533z" style="adobe-blending-mode:multiply" opacity=".2"/><path opacity=".7" fill="#9b85be" d="M131.397 432.582H373.76v3.558H131.397z"/><path fill="#4d4d4d" d="M317.55 389.49l-21.117 11.512 11.504-21.121z"/><path d="M393.831 319.056l-71.442 71.442c-2.318 2.318-10.794 4.384-12.637 2.54l-5.356-5.356c-1.843-1.843.222-10.319 2.54-12.637l71.442-71.442c2.318-2.318 5.687-2.699 7.53-.855l8.771 8.771c1.851 1.85 1.47 5.219-.848 7.537z" fill="#8dc63f"/><path d="M309.864 393.136a.663.663 0 0 1-.113-.098l-5.352-5.352c-1.849-1.849.219-10.319 2.536-12.636l71.449-71.449c2.318-2.318 5.684-2.695 7.526-.853l5.563 5.563c-1.842-1.842-5.209-1.464-7.526.853l-71.449 71.449c-2.272 2.272-4.303 10.478-2.634 12.523z" style="adobe-blending-mode:multiply" opacity=".5" fill="#8dc63f"/><path d="M468.867 248.069l-69.723 69.723c-2.156 2.156-5.791 2.02-8.122-.312l-11.067-11.067c-2.331-2.331-2.468-5.966-.312-8.122l69.723-69.723c2.162-2.162 5.797-2.025 8.128.306l11.067 11.067c2.331 2.331 2.468 5.965.306 8.128z" fill="#d51920"/><path d="M385.947 312.403l-5.994-5.994c-2.325-2.325-2.461-5.964-.31-8.115l69.727-69.727c2.159-2.159 5.797-2.023 8.122.302l5.994 5.994c-2.333-2.333-5.964-2.461-8.122-.302l-69.727 69.727c-2.151 2.152-2.023 5.783.31 8.115z" style="adobe-blending-mode:multiply" fill="#d51920"/><path d="M268.993 398.896c2.852-12.797-21.889-13.459-27.412-16.226 10.537.711 43.71 29.595 52.886 15.321 6.945-10.803-4.449-26.632-3.028-30.788-2.953 8.64-4.881 69.948-20.813 64.636-7.138-2.38-13.744-25.938-3.416-28.138 12.804-2.727 16.067 14.55 19.844 15.583-.55-2.16 7.652-18.828 10.734-19.191-4.369.515 24.871 14.421 23.882 13.921 22.905 11.585 5.676-13.469 18.712-13.399 1.592.116 6.134 3.423 7.799 4.281" opacity=".7" fill="none" stroke="#125e6e" stroke-width="2.135" stroke-miterlimit="10"/><path d="M185.953 367.208c-18.052 0-32.688 14.636-32.688 32.688s14.636 32.688 32.688 32.688c18.063 0 32.699-14.636 32.699-32.688 0-18.052-14.636-32.688-32.699-32.688zm0 57.306c-13.59 0-24.618-11.017-24.618-24.618s11.028-24.628 24.618-24.628c13.601 0 24.628 11.028 24.628 24.628s-11.028 24.618-24.628 24.618z" style="adobe-blending-mode:multiply" opacity=".5" fill="#d51920"/><circle cx="185.957" cy="399.892" r="14.252" style="adobe-blending-mode:multiply" opacity=".5" fill="#d51920"/></svg>