<svg baseProfile="tiny" height="128" overflow="scroll" viewBox="0 0 128 128" width="128" xmlns="http://www.w3.org/2000/svg"><path d="M63.2 46.5c-1.7-1.7-3.7-3-6-3.8V17.9a2.732 2.732 0 0 0-2.7-2.7H46a2.732 2.732 0 0 0-2.7 2.7v24.7c-2.3.9-4.3 2.2-6 3.8-3 3-4.9 7.2-4.9 11.8v50c0 1.2.5 2.3 1.3 3.1.8.8 1.9 1.3 3.1 1.3h27.1c1.2 0 2.3-.5 3.1-1.3.8-.8 1.3-1.9 1.3-3.1v-50c-.1-4.5-2-8.6-5.1-11.7z" fill="#002121"/><path d="M43.4 19.4h13.7c1.4 0 2.6 1.2 2.6 2.6 0 1.4-1.2 2.6-2.6 2.6H43.4c-1.4 0-2.6-1.2-2.6-2.6 0-1.4 1.2-2.6 2.6-2.6M32.6 67.6h35.3v24.1H32.6zm50.9 26.2h3.8v17.4h-3.8z" fill="#FFFAD6" fill-rule="evenodd"/><path d="M85.4 109.3c5.1 0 9.3.8 9.3 1.7 0 .9-4.1 1.7-9.3 1.7-5.1 0-9.3-.8-9.3-1.7 0-.9 4.2-1.7 9.3-1.7m-10.3-48h20.5v23.8c0 4.8-3.9 8.7-8.7 8.7h-3.1c-4.8 0-8.7-3.9-8.7-8.7V61.3z" fill="#FFFAD6" fill-rule="evenodd"/><path d="M85.4 82.3c-3.7 0-7.2-.6-10.2-1.7v4.5c0 4.8 3.9 8.7 8.7 8.7H87c4.8 0 8.7-3.9 8.7-8.7v-4.5c-3.1 1.1-6.6 1.7-10.3 1.7" fill="#F05F61" fill-rule="evenodd"/></svg>