<?xml version="1.0" ?><svg enable-background="new 0 0 24 24" id="Layer_1" version="1.1" viewBox="0 0 24 24" xml:space="preserve" xmlns="http://www.w3.org/2000/svg" xmlns:xlink="http://www.w3.org/1999/xlink"><g><path d="M23,15.0921021V14.5c0.2763672,0,0.5-0.2236328,0.5-0.5s-0.2236328-0.5-0.5-0.5h-1   c-0.2763672,0-0.5,0.2236328-0.5,0.5s0.2236328,0.5,0.5,0.5V15h-1.1993408C20.9154663,14.1090088,21,13.105835,21,12   c0-3.5595703-0.8330078-6.2167969-0.9658203-6.6152344C20.0048828,5.2460938,19.9169922,5.125,19.7910156,5.0541992   C19.6416016,4.9702148,16.0664062,3,10.5,3S1.3583984,4.9702148,1.2089844,5.0541992   c-0.1064453,0.0600586-0.1875,0.1572266-0.2275391,0.2729492C0.9414062,5.4433594,0,8.2163086,0,12   s0.9414062,6.5566406,0.9814453,6.6728516c0.0400391,0.1157227,0.1210938,0.2128906,0.2275391,0.2729492   C1.2697144,18.9799194,1.9043579,19.326416,3,19.7246704V20.5C3,20.7763672,3.2236328,21,3.5,21H4   c0.1894531,0,0.3623047-0.1069336,0.4472656-0.2763672l0.2365112-0.4733276C6.2086792,20.6561279,8.1777954,21,10.5,21   s4.2913208-0.3438721,5.8162231-0.7496948l0.2365112,0.4733276C16.6376953,20.8930664,16.8105469,21,17,21h0.5   c0.2763672,0,0.5-0.2236328,0.5-0.5v-0.7753296c1.0956421-0.3982544,1.7302856-0.744751,1.7910156-0.7788696   c0.1259766-0.0708008,0.2138672-0.1918945,0.2431641-0.3305664C20.109314,18.3898926,20.4064331,17.4247437,20.6520996,16H22.5   c0.2753906,0,0.5,0.2241211,0.5,0.5v1c0,0.2763672,0.2236328,0.5,0.5,0.5s0.5-0.2236328,0.5-0.5v-1   C24,15.848999,23.5807495,15.2991943,23,15.0921021z" fill="#303C42"/><path d="M16,12c0,3.0169678-0.3345947,6.3818359-0.4520874,7.4064941   c-0.3063965,0.0734863-0.6296387,0.1429443-0.9679565,0.2075195c0.0493774-0.4682617,0.1008911-1.1311646,0.1739502-2.0778809   C14.8662109,16.081543,15,13.9404297,15,12c0-2.8839111-0.2972412-6.2262573-0.4345093-7.6168823   c0.3421021,0.0650024,0.6685791,0.1352539,0.9782104,0.2094116C15.6607056,5.6422119,16,8.9475708,16,12z" fill="#DFE1DF"/><path d="M6.2460938,17.5366211c0.0731201,0.9475098,0.1245728,1.6105957,0.1740112,2.0789795   c-0.338623-0.0644531-0.6617432-0.1339722-0.9683228-0.2073975C5.3340454,18.3799438,5,15.0147705,5,12   c0-3.0543213,0.3397217-6.3618164,0.456543-7.4093018c0.3096313-0.0740967,0.6358032-0.1442871,0.9781494-0.2091675   C6.2975464,5.7711792,6,9.1149292,6,12C6,13.9404297,6.1337891,16.0820312,6.2460938,17.5366211z" fill="#DFE1DF"/><path d="M1,12c0-3.0688477,0.6640625-5.4907227,0.8681641-6.1616211   c0.3509521-0.1750488,1.2409668-0.5836182,2.5529175-0.9714355C4.2781372,6.222168,4,9.2144775,4,12   c0,1.9394531,0.1337891,3.9692383,0.2460938,5.3305664c0.0653687,0.7923584,0.1132202,1.3701172,0.157959,1.7974854   c-0.2479248-0.0735474-0.4857178-0.1474609-0.7022095-0.2207031c-0.0073242-0.0032349-0.0149536-0.0050659-0.0224609-0.0079346   c-0.907959-0.3085327-1.5307007-0.5979004-1.8112183-0.737793C1.6640625,17.4907227,1,15.0688477,1,12z" fill="#BA7118"/><path d="M7.4514771,19.7857666C7.3331909,18.6546021,7,15.0368652,7,12   c0-3.0499268,0.3388672-6.6323853,0.456665-7.786438C8.3835449,4.0836182,9.4004517,4,10.5,4   c1.0984497,0,2.1157837,0.0839233,3.043396,0.2144165C13.6612549,5.3695068,14,8.9509277,14,12   c0,3.0368042-0.333374,6.654541-0.4515381,7.7849121C12.6195068,19.9158325,11.6004639,20,10.5,20   C9.3984375,20,8.3796997,19.9161377,7.4514771,19.7857666z" fill="#BA7118"/><path d="M17.3065796,18.9022827c-0.0006104,0.0003052-0.0012817,0.0003662-0.0012817,0.0003662   c-0.2192383,0.0742798-0.4584961,0.1489868-0.7092285,0.2233276c0.0447388-0.4269409,0.0925903-1.0074463,0.1578369-1.7978516   C16.8662109,15.9677734,17,13.9394531,17,12c0-2.7841797-0.277771-5.7748413-0.4208374-7.1309204   c1.3065186,0.3862915,2.196228,0.7927246,2.5497437,0.9683228C19.3291016,6.4892578,20,8.90625,20,12   s-0.6708984,5.5107422-0.8710938,6.1625977C18.8451538,18.3035889,18.2182007,18.5936279,17.3065796,18.9022827z" fill="#BA7118"/><path d="M15.5437012,4.5925293c-0.3096313-0.0741577-0.6361084-0.1444092-0.9782104-0.2094116   c0.0291138,0.2949219,0.0661011,0.6923218,0.1052246,1.1397705c0.3305054,0.0328979,0.6674805,0.0648804,0.9796753,0.1002197   C15.6081543,5.1896362,15.5699463,4.8276978,15.5437012,4.5925293z" fill="#FFFFFF" opacity="0.2"/><path d="M14.5799561,19.6140137c0.3383179-0.0645752,0.6615601-0.1340332,0.9679565-0.2075195   c0.0264282-0.2305908,0.0646362-0.5932007,0.1068115-1.0301514c-0.3106689,0.0351562-0.6455688,0.0671387-0.9744263,0.0998535   C14.6431274,18.9418335,14.6107788,19.3217163,14.5799561,19.6140137z" opacity="0.1"/><path d="M6.4346924,4.3815308C6.0923462,4.4464111,5.7661743,4.5166016,5.456543,4.5906982   C5.4302979,4.8258057,5.3920288,5.1881714,5.3497314,5.6224976c0.3119507-0.0354004,0.649292-0.067627,0.9796753-0.100708   C6.3685913,5.0739746,6.4055786,4.6764526,6.4346924,4.3815308z" fill="#FFFFFF" opacity="0.2"/><path d="M5.4517822,19.4082031c0.3065796,0.0734253,0.6296997,0.1429443,0.9683228,0.2073975   c-0.0308838-0.2923584-0.0631714-0.6723633-0.1004028-1.1383057c-0.3289185-0.032959-0.6640625-0.0650024-0.9746704-0.1003418   C5.387146,18.8140259,5.425293,19.1769409,5.4517822,19.4082031z" opacity="0.1"/><path d="M1.8681641,5.8383789C1.6640625,6.5092773,1,8.9311523,1,12   c0-2.6373291,0.6640625-4.7186279,0.8681641-5.295166C2.2092896,6.5585938,3.067688,6.2228394,4.3197021,5.8980713   c0.0368652-0.3966675,0.0722656-0.7548828,0.1013794-1.0311279C3.1091309,5.2547607,2.2191162,5.6633301,1.8681641,5.8383789z" fill="#FFFFFF" opacity="0.2"/><path d="M3.6793823,17.9291992c-0.907959-0.2651978-1.5307007-0.513855-1.8112183-0.6340942   C1.6640625,16.7185669,1,14.6372681,1,12c0,3.0688477,0.6640625,5.4907227,0.8681641,6.1616211   c0.2805176,0.1398926,0.9032593,0.4292603,1.8112183,0.737793c0.0075073,0.0028687,0.0151367,0.0046997,0.0224609,0.0079346   c0.2164917,0.0732422,0.4542847,0.1471558,0.7022095,0.2207031c-0.0285645-0.2727661-0.05896-0.6156616-0.093811-1.02771   c-0.2122803-0.0548706-0.4208374-0.1098633-0.6083984-0.1643677C3.694519,17.9332275,3.6868896,17.9316406,3.6793823,17.9291992z" opacity="0.1"/><path d="M13.6464844,5.2907104c-0.0408936-0.4519653-0.0773926-0.8244019-0.1030884-1.0762939   C12.6157837,4.0839233,11.5984497,4,10.5,4C9.4004517,4,8.3835449,4.0836182,7.456665,4.213562   c-0.0256958,0.25177-0.0621948,0.6243286-0.1031494,1.0764771C8.3215942,5.1912842,9.3667603,5.125,10.5,5.125   C11.6321411,5.125,12.6776733,5.1915894,13.6464844,5.2907104z" fill="#FFFFFF" opacity="0.2"/><path d="M7.3481445,18.7094116c0.0408325,0.4550781,0.0773926,0.828186,0.1033325,1.076355   C8.3796997,19.9161377,9.3984375,20,10.5,20c1.1004639,0,2.1195068-0.0841675,3.0484619-0.2150879   c0.0259399-0.2479858,0.062561-0.6210938,0.1033936-1.0761719C12.6815796,18.8082275,11.6342163,18.875,10.5,18.875   C9.3646851,18.875,8.317688,18.8084717,7.3481445,18.7094116z" opacity="0.1"/><path d="M19.1289062,17.2959595c-0.2837524,0.1211548-0.9107056,0.3704224-1.8223267,0.6356812   c-0.0006104,0.0002441-0.0012817,0.0003052-0.0012817,0.0003052c-0.1903076,0.0554199-0.4006958,0.111084-0.6156006,0.166626   c-0.03479,0.4117432-0.0651245,0.755188-0.0936279,1.0274048c0.2507324-0.0743408,0.4899902-0.1490479,0.7092285-0.2233276   c0,0,0.0006714-0.000061,0.0012817-0.0003662c0.9116211-0.3086548,1.5385742-0.5986938,1.8223267-0.7396851   C19.3291016,17.5107422,20,15.09375,20,12C20,14.6586914,19.3291016,16.7357788,19.1289062,17.2959595z" opacity="0.1"/><path d="M20,12c0-3.09375-0.6708984-5.5107422-0.8710938-6.1625977   c-0.3535156-0.1755981-1.2432251-0.5820312-2.5497437-0.9683228c0.0291748,0.2762451,0.0645142,0.6343994,0.1013184,1.0307617   c1.2468262,0.3234863,2.1048584,0.6575317,2.4484253,0.8041382C19.3291016,7.2642212,20,9.3413086,20,12z" fill="#FFFFFF" opacity="0.2"/><linearGradient gradientUnits="userSpaceOnUse" id="SVGID_1_" x1="-0.0721006" x2="23.5427227" y1="7.5801654" y2="18.591938"><stop offset="0" style="stop-color:#FFFFFF;stop-opacity:0.2"/><stop offset="1" style="stop-color:#FFFFFF;stop-opacity:0"/></linearGradient><path d="M23,15.0921021V14.5c0.2763672,0,0.5-0.2236328,0.5-0.5s-0.2236328-0.5-0.5-0.5h-1   c-0.2763672,0-0.5,0.2236328-0.5,0.5s0.2236328,0.5,0.5,0.5V15h-1.1993408C20.9154663,14.1090088,21,13.105835,21,12   c0-3.5595703-0.8330078-6.2167969-0.9658203-6.6152344C20.0048828,5.2460938,19.9169922,5.125,19.7910156,5.0541992   C19.6416016,4.9702148,16.0664062,3,10.5,3S1.3583984,4.9702148,1.2089844,5.0541992   c-0.1064453,0.0600586-0.1875,0.1572266-0.2275391,0.2729492C0.9414062,5.4433594,0,8.2163086,0,12   s0.9414062,6.5566406,0.9814453,6.6728516c0.0400391,0.1157227,0.1210938,0.2128906,0.2275391,0.2729492   C1.2697144,18.9799194,1.9043579,19.326416,3,19.7246704V20.5C3,20.7763672,3.2236328,21,3.5,21H4   c0.1894531,0,0.3623047-0.1069336,0.4472656-0.2763672l0.2365112-0.4733276C6.2086792,20.6561279,8.1777954,21,10.5,21   s4.2913208-0.3438721,5.8162231-0.7496948l0.2365112,0.4733276C16.6376953,20.8930664,16.8105469,21,17,21h0.5   c0.2763672,0,0.5-0.2236328,0.5-0.5v-0.7753296c1.0956421-0.3982544,1.7302856-0.744751,1.7910156-0.7788696   c0.1259766-0.0708008,0.2138672-0.1918945,0.2431641-0.3305664C20.109314,18.3898926,20.4064331,17.4247437,20.6520996,16H22.5   c0.2753906,0,0.5,0.2241211,0.5,0.5v1c0,0.2763672,0.2236328,0.5,0.5,0.5s0.5-0.2236328,0.5-0.5v-1   C24,15.848999,23.5807495,15.2991943,23,15.0921021z" fill="url(#SVGID_1_)"/></g><g/><g/><g/><g/><g/><g/><g/><g/><g/><g/><g/><g/><g/><g/><g/></svg>