<?xml version="1.0" ?><!DOCTYPE svg  PUBLIC '-//W3C//DTD SVG 1.1//EN'  'http://www.w3.org/Graphics/SVG/1.1/DTD/svg11.dtd'><svg enable-background="new 0 0 512 512" height="512px" id="Calque_1" version="1.1" viewBox="0 0 512 512" width="512px" xml:space="preserve" xmlns="http://www.w3.org/2000/svg" xmlns:xlink="http://www.w3.org/1999/xlink"><g><g><g><g><g id="XMLID_1_"><g><path d="M175.7,189.26H44.86c0-5.41,0.92-10.6,2.62-15.43c6.36-18.09,23.6-31.06,43.87-31.07v0.01h58.97        c2.09,11.29,6.4,21.8,12.45,31.06C166.47,179.47,170.81,184.65,175.7,189.26z" fill="#526471"/><path d="M319.63,126.53c0.04,5.55-0.45,10.98-1.43,16.24c-2.08,11.29-6.39,21.8-12.45,31.06        c-3.69,5.64-8.04,10.83-12.93,15.43H175.7c-4.89-4.61-9.23-9.79-12.93-15.43c-6.05-9.26-10.36-19.77-12.45-31.06        c-0.9-4.87-1.38-9.88-1.42-15c-0.34-47.14,37.6-85.64,84.74-85.98h0.62C281.13,41.77,319.29,79.6,319.63,126.53z" fill="#FFC035"/><path d="M393.56,189.26H292.82c4.89-4.6,9.24-9.79,12.93-15.43c6.06-9.26,10.37-19.77,12.45-31.06h20.31v-0.01        h8.55c20.27,0,37.51,12.97,43.88,31.07C392.64,178.66,393.56,183.85,393.56,189.26z" fill="#526471"/><path d="M338.52,307.09c12.84,0,23.25,10.41,23.25,23.25c0,12.85-10.41,23.26-23.25,23.26        c-12.85,0-23.26-10.41-23.26-23.26C315.26,317.5,325.67,307.09,338.52,307.09z" fill="#ECEFF0"/><path d="M338.52,283.83c-25.49,0-46.19,20.5-46.51,45.91c-0.01,0.2-0.01,0.41-0.01,0.61        c0,25.68,20.83,46.5,46.52,46.5h126.79v-93.02H338.52z M361.77,330.34c0,12.85-10.41,23.26-23.25,23.26        c-12.85,0-23.26-10.41-23.26-23.26c0-0.2,0-0.4,0.02-0.6c0.31-12.56,10.59-22.65,23.24-22.65c12.64,0,22.92,10.09,23.24,22.65        C361.77,329.94,361.77,330.14,361.77,330.34z" fill="#758289"/></g><g><polyline fill="none" points="465.31,424.92 465.31,376.85 465.31,283.83 465.31,235.77       "/><polyline fill="none" points="91.35,142.77 99.9,142.77 150.32,142.77       "/><line fill="none" x1="338.51" x2="318.2" y1="142.77" y2="142.77"/><line fill="none" x1="418.81" x2="91.36" y1="470.21" y2="470.21"/><path d="M465.32,423.71c0,0.4,0,0.81-0.01,1.21c-0.64,25.11-21.23,45.29-46.5,45.29" fill="none"/><path d="M44.86,423.7c0,25.69,20.82,46.51,46.5,46.51" fill="none"/><path d="M465.31,235.77c0-25.68-20.81-46.51-46.5-46.51h-25.25h-36.68h-31.31h-31.02h-1.73h-34.08h-0.3h-23.73        h-5.05h-2.54h-26.51h-2.26H175.7h-10.92h-33.56H99.9H44.86" fill="none"/><path d="M91.36,142.76h-0.01c-25.68,0.01-46.49,20.82-46.49,46.5" fill="none"/><line fill="none" x1="347.06" x2="338.51" y1="142.76" y2="142.76"/><path d="M393.56,189.26c0-25.68-20.82-46.5-46.5-46.5" fill="none"/><polyline fill="none" points="44.85,423.71 44.85,423.7 44.85,189.26       "/><path d="M338.52,376.85c-25.69,0-46.52-20.82-46.52-46.5c0-25.69,20.83-46.52,46.52-46.52" fill="none"/><line fill="none" x1="338.52" x2="465.31" y1="283.83" y2="283.83"/><line fill="none" x1="465.31" x2="338.52" y1="376.85" y2="376.85"/><path d="M338.52,307.09c12.84,0,23.25,10.41,23.25,23.25c0,12.85-10.41,23.26-23.25,23.26        c-12.85,0-23.26-10.41-23.26-23.26C315.26,317.5,325.67,307.09,338.52,307.09z" fill="none"/><path d="M175.7,189.26c-12.9-12.17-22.02-28.31-25.38-46.49c-0.9-4.87-1.38-9.88-1.42-15        c-0.34-47.14,37.6-85.64,84.74-85.98c47.15-0.35,85.65,37.6,85.99,84.74c0.04,5.55-0.45,10.98-1.43,16.24        c-3.35,18.16-12.46,34.32-25.38,46.49" fill="none"/><path d="M292,330.35c0,25.68,20.83,46.5,46.52,46.5h126.79v48.07c-0.64,25.11-21.23,45.29-46.5,45.29H91.36        c-25.68,0-46.5-20.82-46.5-46.51h-0.01V189.26h373.96c25.69,0,46.5,20.83,46.5,46.51v48.06H338.52        C312.83,283.83,292,304.66,292,330.35z" fill="#303C44"/><path d="M238.6,172.87l0.11,16.36c0,0.01,0,0.01,0,0.03h-8l-0.11-16.01l-17.03,0.12h-0.03        c-2.2,0-3.98-1.77-4-3.97c-0.02-2.21,1.76-4.01,3.97-4.03l21.03-0.15c9.39-0.07,16.97-7.77,16.91-17.16        c-0.06-9.35-7.7-16.91-17.04-16.91h-0.3c-6.62,0-12.85-2.55-17.57-7.2c-4.77-4.7-7.41-10.97-7.46-17.65        c-0.05-6.69,2.51-13,7.2-17.76c3.75-3.79,8.49-6.24,13.65-7.1l-0.14-19.96c-0.02-2.21,1.76-4.01,3.97-4.03h0.03        c2.2,0,3.98,1.77,4,3.97l0.14,19.64l17.03-0.13h0.03c2.2,0,3.98,1.77,4,3.97c0.02,2.21-1.76,4.01-3.97,4.03l-21.03,0.16        c-9.39,0.06-16.97,7.76-16.91,17.15c0.03,4.55,1.83,8.82,5.07,12.01c3.24,3.19,7.49,4.95,12.08,4.9h0.18        c13.73,0,24.95,11.11,25.04,24.85C259.54,160.44,250.49,170.85,238.6,172.87z" fill="#C98B0E"/></g></g></g></g><path d="M393.56,189.26H44.86c0-5.41,0.92-10.6,2.62-15.43h343.46C392.64,178.66,393.56,183.85,393.56,189.26z" opacity="0.2"/><linearGradient gradientUnits="userSpaceOnUse" id="SVGID_1_" x1="378.655" x2="378.655" y1="329.74" y2="376.85"><stop offset="0" style="stop-color:#000000"/><stop offset="1" style="stop-color:#FFFFFF;stop-opacity:0"/></linearGradient><path d="M465.31,329.74v47.11H338.52c-25.69,0-46.52-20.82-46.52-46.5    c0-0.2,0-0.41,0.01-0.61H465.31z" fill="url(#SVGID_1_)" opacity="0.2"/></g><linearGradient gradientUnits="userSpaceOnUse" id="SVGID_2_" x1="234.26" x2="319.6323" y1="115.525" y2="115.525"><stop offset="0" style="stop-color:#000000"/><stop offset="1" style="stop-color:#FFFFFF;stop-opacity:0"/></linearGradient><path d="M319.63,126.53c0.04,5.55-0.45,10.98-1.43,16.24c-2.08,11.29-6.39,21.8-12.45,31.06   c-3.69,5.64-8.04,10.83-12.93,15.43h-58.56V41.79C281.13,41.77,319.29,79.6,319.63,126.53z" fill="url(#SVGID_2_)" opacity="0.2"/></g></svg>