<?xml version="1.0" ?><!DOCTYPE svg  PUBLIC '-//W3C//DTD SVG 1.1 Tiny//EN'  'http://www.w3.org/Graphics/SVG/1.1/DTD/svg11-tiny.dtd'><svg baseProfile="tiny" height="128px" id="Layer_1" overflow="scroll" version="1.1" viewBox="0 0 128 128" width="128px" xml:space="preserve" xmlns="http://www.w3.org/2000/svg" xmlns:xlink="http://www.w3.org/1999/xlink"><g><path d="M63.2,46.5c-1.7-1.7-3.7-3-6-3.8V17.9c0-0.7-0.3-1.4-0.8-1.9l0,0l0,0c-0.5-0.5-1.2-0.8-1.9-0.8H46   c-0.7,0-1.4,0.3-1.9,0.8c-0.5,0.5-0.8,1.2-0.8,1.9v24.7c-2.3,0.9-4.3,2.2-6,3.8c-3,3-4.9,7.2-4.9,11.8v50c0,1.2,0.5,2.3,1.3,3.1   c0.8,0.8,1.9,1.3,3.1,1.3h27.1c1.2,0,2.3-0.5,3.1-1.3c0.8-0.8,1.3-1.9,1.3-3.1v-50C68.2,53.7,66.3,49.6,63.2,46.5z" fill="#002121"/><path d="M43.4,19.4h13.7c1.4,0,2.6,1.2,2.6,2.6v0c0,1.4-1.2,2.6-2.6,2.6H43.4   c-1.4,0-2.6-1.2-2.6-2.6v0C40.8,20.6,42,19.4,43.4,19.4" fill="#FFFAD6" fill-rule="evenodd"/><rect fill="#FFFAD6" fill-rule="evenodd" height="24.1" width="35.3" x="32.6" y="67.6"/><rect fill="#FFFAD6" fill-rule="evenodd" height="17.4" width="3.8" x="83.5" y="93.8"/><path d="M85.4,109.3c5.1,0,9.3,0.8,9.3,1.7c0,0.9-4.1,1.7-9.3,1.7c-5.1,0-9.3-0.8-9.3-1.7   C76.1,110.1,80.3,109.3,85.4,109.3" fill="#FFFAD6" fill-rule="evenodd"/><path d="M75.1,61.3h20.5v23.8c0,4.8-3.9,8.7-8.7,8.7h-3.1c-4.8,0-8.7-3.9-8.7-8.7V61.3z" fill="#FFFAD6" fill-rule="evenodd"/><path d="M85.4,82.3c-3.7,0-7.2-0.6-10.2-1.7v4.5c0,4.8,3.9,8.7,8.7,8.7h3.1   c4.8,0,8.7-3.9,8.7-8.7v-4.5C92.6,81.7,89.1,82.3,85.4,82.3" fill="#F05F61" fill-rule="evenodd"/></g></svg>